<?xml version="1.0" encoding="UTF-8" standalone="no"?>
<svg
   xmlns:dc="http://purl.org/dc/elements/1.1/"
   xmlns:cc="http://creativecommons.org/ns#"
   xmlns:rdf="http://www.w3.org/1999/02/22-rdf-syntax-ns#"
   xmlns:svg="http://www.w3.org/2000/svg"
   xmlns="http://www.w3.org/2000/svg"
   xmlns:sodipodi="http://sodipodi.sourceforge.net/DTD/sodipodi-0.dtd"
   xmlns:inkscape="http://www.inkscape.org/namespaces/inkscape"
   width="32"
   height="32"
   viewBox="0 0 8.4666665 8.4666669"
   version="1.1"
   id="svg8"
   inkscape:version="1.0.2-2 (e86c870879, 2021-01-15)"
   sodipodi:docname="favicon_hat.svg">
  <defs
     id="defs2" />
  <sodipodi:namedview
     id="base"
     pagecolor="#ffffff"
     bordercolor="#666666"
     borderopacity="1.0"
     inkscape:pageopacity="0.0"
     inkscape:pageshadow="2"
     inkscape:zoom="3.959798"
     inkscape:cx="71.168257"
     inkscape:cy="73.762846"
     inkscape:document-units="mm"
     inkscape:current-layer="layer3"
     inkscape:document-rotation="0"
     showgrid="false"
     units="px"
     inkscape:window-width="1718"
     inkscape:window-height="1360"
     inkscape:window-x="3633"
     inkscape:window-y="0"
     inkscape:window-maximized="0" />
  <metadata
     id="metadata5">
    <rdf:RDF>
      <cc:Work
         rdf:about="">
        <dc:format>image/svg+xml</dc:format>
        <dc:type
           rdf:resource="http://purl.org/dc/dcmitype/StillImage" />
        <dc:title></dc:title>
      </cc:Work>
    </rdf:RDF>
  </metadata>
  <g
     inkscape:label="Ebene 1"
     inkscape:groupmode="layer"
     id="layer1" />
  <g
     inkscape:groupmode="layer"
     id="layer2"
     inkscape:label="Ebene 2" />
  <g
     inkscape:groupmode="layer"
     id="layer3"
     inkscape:label="Ebene 3">
    <g
       id="g945"
       transform="matrix(0.46356678,0,0,0.46356678,-5.211425,2.207029)">
      <path
         style="fill:#ff9600;fill-opacity:1;stroke:none;stroke-width:0.264583px;stroke-linecap:butt;stroke-linejoin:miter;stroke-opacity:1"
         d="m 11.242024,5.6794775 c 0,0 0.884179,0.3121376 1.336348,0.4343127 0.456526,0.1233521 0.922627,0.2085385 1.386461,0.3006784 0.399579,0.079376 0.799673,0.1578039 1.202713,0.2171565 0.388119,0.057155 0.779278,0.091405 1.169304,0.1336347 0.489688,0.053021 0.978871,0.1127216 1.469982,0.1503391 0.544789,0.041729 1.090879,0.067377 1.637026,0.083522 0.684602,0.020238 1.369745,0.02067 2.054634,0.016703 0.39343,-0.00228 0.787325,-1.134e-4 1.180079,-0.023265 0.481826,-0.028402 0.961088,-0.090603 1.441034,-0.141741 0.480776,-0.051227 0.961498,-0.1036093 1.441035,-0.1653644 0.4418,-0.056895 0.88561,-0.104202 1.322915,-0.1889882 0.485611,-0.094152 0.970082,-0.2030715 1.441035,-0.3543525 0.403737,-0.1296896 1.181177,-0.4724704 1.181177,-0.4724704 0,0 -0.113767,0.4981453 -0.212611,0.7323291 -0.130273,0.3086472 -0.281835,0.6165293 -0.496094,0.8740698 -0.289525,0.3480106 -0.648775,0.6453355 -1.039437,0.8740698 -0.559125,0.3273701 -1.194899,0.5110719 -1.819009,0.6850819 -0.540043,0.150571 -1.09848,0.2289523 -1.653646,0.3071056 -0.650202,0.091532 -1.305278,0.150328 -1.960752,0.1889882 -0.723368,0.042665 -1.448744,0.044203 -2.173363,0.047247 -0.590635,0.00248 -1.181851,0.0057 -1.771763,-0.023625 C 17.921242,9.332152 17.464213,9.2902683 17.008928,9.2367916 16.637299,9.1931409 16.264676,9.1490082 15.898623,9.0714271 15.522969,8.9918111 15.155639,8.8762589 14.788318,8.7643215 14.45484,8.6626973 14.117668,8.5683112 13.796131,8.4335923 13.396612,8.2662001 12.998837,8.0835251 12.638579,7.8430045 12.406295,7.6879237 12.183203,7.5111218 12.000744,7.2996638 11.855151,7.1309308 11.745848,6.9321404 11.646391,6.7326996 11.478568,6.3961637 11.242024,5.6794775 11.242024,5.6794775 Z"
         id="path915"
         sodipodi:nodetypes="csssssssssssscsssssssssssssssc" />
      <path
         style="fill:#ffc226;fill-opacity:1;stroke:none;stroke-width:0.264583px;stroke-linecap:butt;stroke-linejoin:miter;stroke-opacity:1"
         d="m 17.008928,6.4492187 0.377977,-2.2678573 0.330729,-1.6772692 0.283482,-1.3937871 0.259858,-0.54334083 0.496094,-0.54334076 0.661459,-0.4252232 0.897693,-0.23623513 0.779576,0.11811757 0.732329,0.35435267 0.496093,0.61421131 0.377977,0.59058777 0.188988,0.8976935 0.283482,1.4410341 0.212611,1.3701638 0.118118,0.7323289 0.141741,0.9921875 c 0,0 -0.471199,0.074751 -0.708705,0.094494 -0.235554,0.019581 -0.472438,0.016806 -0.708706,0.023625 -0.322816,0.00932 -0.645637,0.019685 -0.968564,0.023622 -0.307083,0.00374 -0.614211,0 -0.921317,0 -0.31498,0 -0.630104,0.00953 -0.94494,0 -0.260216,-0.00788 -0.519934,-0.028254 -0.779576,-0.047247 -0.275881,-0.02018 -0.550942,-0.050691 -0.826823,-0.070871 -0.259642,-0.018992 -0.779576,-0.047247 -0.779576,-0.047247 z"
         id="path917"
         sodipodi:nodetypes="cccccccccccccccccsssssssc" />
      <path
         style="fill:#ffc226;fill-opacity:1;stroke:none;stroke-width:0.264583px;stroke-linecap:butt;stroke-linejoin:miter;stroke-opacity:1"
         d="m 16.583705,6.4610305 0.519717,-3.1183035 -1.252046,0.1299292 -1.181175,0.1653646 -1.133929,0.2244233 -0.815011,0.2126117 -0.578776,0.2480469 -0.342541,0.1299292 -0.236235,0.1653646 -0.118118,0.1063059 -0.118117,0.141741 -0.04725,0.1653645 v 0.1889882 l 0.08268,0.094494 0.283482,0.1181174 0.637835,0.1889882 0.897694,0.2598586 0.897693,0.2007997 0.826823,0.1181177 1.07487,0.141741 z"
         id="path919" />
      <path
         style="fill:#ffc226;fill-opacity:1;stroke:none;stroke-width:0.264583px;stroke-linecap:butt;stroke-linejoin:miter;stroke-opacity:1"
         d="m 24.155214,6.4914713 -0.519717,-3.1183035 1.252046,0.1299292 1.181175,0.1653646 1.133929,0.2244233 0.815011,0.2126117 0.578776,0.2480469 0.342541,0.1299292 0.236235,0.1653646 0.118118,0.1063059 0.118117,0.141741 0.04725,0.1653645 v 0.1889882 l -0.08268,0.094494 -0.283482,0.1181174 -0.637835,0.1889882 -0.897694,0.2598586 -0.897693,0.2007997 -0.826823,0.1181177 -1.07487,0.141741 z"
         id="path919-1" />
    </g>
  </g>
</svg>
