<?xml version="1.0" encoding="UTF-8" standalone="no"?>
<svg
   xmlns:dc="http://purl.org/dc/elements/1.1/"
   xmlns:cc="http://creativecommons.org/ns#"
   xmlns:rdf="http://www.w3.org/1999/02/22-rdf-syntax-ns#"
   xmlns:svg="http://www.w3.org/2000/svg"
   xmlns="http://www.w3.org/2000/svg"
   xmlns:xlink="http://www.w3.org/1999/xlink"
   xmlns:sodipodi="http://sodipodi.sourceforge.net/DTD/sodipodi-0.dtd"
   xmlns:inkscape="http://www.inkscape.org/namespaces/inkscape"
   width="180"
   height="180"
   viewBox="0 0 47.624999 47.625"
   version="1.1"
   id="svg1"
   inkscape:version="1.0.2-2 (e86c870879, 2021-01-15)"
   sodipodi:docname="music-icon.svg"
   xml:space="preserve"><metadata
     id="metadata891"><rdf:RDF><cc:Work
         rdf:about=""><dc:format>image/svg+xml</dc:format><dc:type
           rdf:resource="http://purl.org/dc/dcmitype/StillImage" /><dc:title></dc:title></cc:Work></rdf:RDF></metadata><sodipodi:namedview
     id="namedview1"
     pagecolor="#ffffff"
     bordercolor="#111111"
     borderopacity="1"
     inkscape:showpageshadow="0"
     inkscape:pageopacity="0"
     inkscape:pagecheckerboard="1"
     inkscape:deskcolor="#d1d1d1"
     inkscape:document-units="mm"
     inkscape:zoom="4.1798822"
     inkscape:cx="94.63879"
     inkscape:cy="41.097212"
     inkscape:window-width="3840"
     inkscape:window-height="1529"
     inkscape:window-x="1912"
     inkscape:window-y="-8"
     inkscape:window-maximized="1"
     inkscape:current-layer="layer2"
     inkscape:document-rotation="0"
     showgrid="false"
     inkscape:snap-bbox="true" /><defs
     id="defs1"><linearGradient
       id="linearGradient11"
       inkscape:collect="always"><stop
         style="stop-color:#ff9f00;stop-opacity:1;"
         offset="0"
         id="stop11" /><stop
         style="stop-color:#ffdf00;stop-opacity:1;"
         offset="0.5"
         id="stop13" /><stop
         style="stop-color:#ff9f00;stop-opacity:1;"
         offset="1"
         id="stop12" /></linearGradient><linearGradient
       id="linearGradient1-1"><stop
         style="stop-color:#ff9f00;stop-opacity:1;"
         offset="0"
         id="stop5" /><stop
         style="stop-color:#ffdf00;stop-opacity:1;"
         offset="0.5"
         id="stop7" /><stop
         style="stop-color:#ff9f00;stop-opacity:1;"
         offset="1"
         id="stop6" /></linearGradient><linearGradient
       id="linearGradient1"><stop
         style="stop-color:#000000;stop-opacity:1;"
         offset="0"
         id="stop3" /><stop
         style="stop-color:#000000;stop-opacity:0;"
         offset="1"
         id="stop4" /></linearGradient><linearGradient
       id="linearGradient1-2"><stop
         style="stop-color:#bf0000;stop-opacity:1;"
         offset="0"
         id="stop1" /><stop
         style="stop-color:#ffdf00;stop-opacity:1;"
         offset="0.51694918"
         id="stop2" /></linearGradient><linearGradient
       inkscape:collect="always"
       xlink:href="#linearGradient11"
       id="linearGradient17"
       gradientUnits="userSpaceOnUse"
       x1="58.470737"
       y1="27.93293"
       x2="106.596"
       y2="27.93293"
       gradientTransform="matrix(0.90210432,0,0,0.82447028,-52.746705,0.3132987)" /></defs><g
     inkscape:groupmode="layer"
     id="layer2"
     inkscape:label="Ebene 2"><path
       id="rect11-3-6"
       style="fill:#a53d19;fill-opacity:1;stroke-width:0.230488;stroke-dasharray:none"
       d="m 12.212823,10.023463 h 2.265212 V 39.875886 H 12.212823 Z M 41.892106,4.9084497 h 2.26521 V 34.760872 h -2.26521 z M 12.212825,5.901112 44.157316,0.78609751 V 9.0308008 L 12.212825,14.145815 Z m 31.901697,28.699805 a 4.6281643,7.6789514 65.604198 0 1 -6.667139,7.058201 4.6281643,7.6789514 65.604198 0 1 -7.789157,-2.415047 4.6281643,7.6789514 65.604198 0 1 6.667141,-7.058202 4.6281643,7.6789514 65.604198 0 1 7.789155,2.415048 z m -29.636485,5.274972 a 4.6281643,7.6789514 65.604198 0 1 -6.6671415,7.0582 4.6281643,7.6789514 65.604198 0 1 -7.78915764,-2.415047 4.6281643,7.6789514 65.604198 0 1 6.66714274,-7.0582 4.6281643,7.6789514 65.604198 0 1 7.7891564,2.415047 z" /></g><g
     inkscape:label="Ebene 1"
     inkscape:groupmode="layer"
     id="layer1"><path
       style="fill:#a53d19;fill-opacity:1;stroke:none;stroke-width:0.22818"
       d="M 12.00754,5.1146256 43.413925,1.6867762e-4"
       id="path7" /><path
       id="rect11-3"
       style="fill:url(#linearGradient17);stroke-width:0.22854;stroke-dasharray:none"
       d="m 12.007242,9.237365 h 2.227082 V 39.089788 H 12.007242 Z M 41.186928,4.1223518 h 2.227078 V 33.974775 H 41.186928 Z M 12.007244,5.1150136 43.414006,0 V 8.2447028 L 12.007244,13.359717 Z M 43.371933,33.814819 a 4.6143676,7.5722629 64.803946 0 1 -6.55491,7.058202 4.6143676,7.5722629 64.803946 0 1 -7.658041,-2.415048 4.6143676,7.5722629 64.803946 0 1 6.554913,-7.058201 4.6143676,7.5722629 64.803946 0 1 7.658038,2.415047 z M 14.234326,39.089791 A 4.6143676,7.5722629 64.803946 0 1 7.6794134,46.147992 4.6143676,7.5722629 64.803946 0 1 0.02137228,43.732944 4.6143676,7.5722629 64.803946 0 1 6.5762851,36.674745 4.6143676,7.5722629 64.803946 0 1 14.234326,39.089791 Z" /></g></svg>
