<?xml version="1.0" encoding="UTF-8" standalone="no"?>
<svg
   xmlns:dc="http://purl.org/dc/elements/1.1/"
   xmlns:cc="http://creativecommons.org/ns#"
   xmlns:rdf="http://www.w3.org/1999/02/22-rdf-syntax-ns#"
   xmlns:svg="http://www.w3.org/2000/svg"
   xmlns="http://www.w3.org/2000/svg"
   xmlns:xlink="http://www.w3.org/1999/xlink"
   xmlns:sodipodi="http://sodipodi.sourceforge.net/DTD/sodipodi-0.dtd"
   xmlns:inkscape="http://www.inkscape.org/namespaces/inkscape"
   width="180"
   height="180"
   viewBox="0 0 47.624999 47.625"
   version="1.1"
   id="svg1"
   inkscape:version="1.0.2-2 (e86c870879, 2021-01-15)"
   sodipodi:docname="no-music-icon.svg"
   xml:space="preserve"><metadata
     id="metadata891"><rdf:RDF><cc:Work
         rdf:about=""><dc:format>image/svg+xml</dc:format><dc:type
           rdf:resource="http://purl.org/dc/dcmitype/StillImage" /></cc:Work></rdf:RDF></metadata><sodipodi:namedview
     id="namedview1"
     pagecolor="#ffffff"
     bordercolor="#111111"
     borderopacity="1"
     inkscape:showpageshadow="0"
     inkscape:pageopacity="0"
     inkscape:pagecheckerboard="1"
     inkscape:deskcolor="#d1d1d1"
     inkscape:document-units="mm"
     inkscape:zoom="4.1798822"
     inkscape:cx="94.63879"
     inkscape:cy="41.097212"
     inkscape:window-width="3840"
     inkscape:window-height="1529"
     inkscape:window-x="1912"
     inkscape:window-y="-8"
     inkscape:window-maximized="1"
     inkscape:current-layer="layer2"
     inkscape:document-rotation="0"
     showgrid="false"
     inkscape:snap-bbox="true" /><defs
     id="defs1"><linearGradient
       id="linearGradient10"
       inkscape:collect="always"><stop
         style="stop-color:#ff9f00;stop-opacity:1;"
         offset="0"
         id="stop10" /><stop
         style="stop-color:#ffdf00;stop-opacity:1;"
         offset="0.72898549"
         id="stop15" /><stop
         style="stop-color:#ff9f00;stop-opacity:1;"
         offset="1"
         id="stop14" /></linearGradient><linearGradient
       id="linearGradient11"
       inkscape:collect="always"><stop
         style="stop-color:#ff9f00;stop-opacity:1;"
         offset="0"
         id="stop11" /><stop
         style="stop-color:#ffdf00;stop-opacity:1;"
         offset="0.5"
         id="stop13" /><stop
         style="stop-color:#ff9f00;stop-opacity:1;"
         offset="1"
         id="stop12" /></linearGradient><linearGradient
       id="linearGradient1-1"><stop
         style="stop-color:#ff9f00;stop-opacity:1;"
         offset="0"
         id="stop5" /><stop
         style="stop-color:#ffdf00;stop-opacity:1;"
         offset="0.5"
         id="stop7" /><stop
         style="stop-color:#ff9f00;stop-opacity:1;"
         offset="1"
         id="stop6" /></linearGradient><linearGradient
       id="linearGradient1"><stop
         style="stop-color:#000000;stop-opacity:1;"
         offset="0"
         id="stop3" /><stop
         style="stop-color:#000000;stop-opacity:0;"
         offset="1"
         id="stop4" /></linearGradient><linearGradient
       id="linearGradient1-2"><stop
         style="stop-color:#bf0000;stop-opacity:1;"
         offset="0"
         id="stop1" /><stop
         style="stop-color:#ffdf00;stop-opacity:1;"
         offset="0.51694918"
         id="stop2" /></linearGradient><linearGradient
       inkscape:collect="always"
       xlink:href="#linearGradient11"
       id="linearGradient17"
       gradientUnits="userSpaceOnUse"
       x1="58.470737"
       y1="27.93293"
       x2="106.596"
       y2="27.93293"
       gradientTransform="matrix(0.90210432,0,0,0.82447028,-52.746705,0.3132987)" /><linearGradient
       inkscape:collect="always"
       xlink:href="#linearGradient10"
       id="linearGradient14"
       x1="5.6444793"
       y1="10.919117"
       x2="35.753218"
       y2="10.919117"
       gradientUnits="userSpaceOnUse"
       gradientTransform="matrix(0.99047337,0,0,0.99047337,0,-0.04280765)" /></defs><g
     inkscape:groupmode="layer"
     id="layer2"
     inkscape:label="Ebene 2"><g
       id="g877"
       transform="matrix(1.0074317,0,0,0.99047337,-31.093171,19.364356)"><path
         id="rect11-3-6"
         style="fill:#a53d19;fill-opacity:1;stroke-width:0.230738;stroke-dasharray:none"
         d="m 42.986531,-9.4307357 h 2.248502 V 20.708815 h -2.248502 z m 29.460343,-5.1642113 h 2.248499 v 30.139551 h -2.248499 z m -29.460341,1.00221 31.70884,-5.164212 v 8.324003 l -31.70884,5.1642113 z M 74.652895,15.38311 a 4.6587498,7.6450949 64.803946 0 1 -6.617956,7.126089 4.6587498,7.6450949 64.803946 0 1 -7.731698,-2.438276 4.6587498,7.6450949 64.803946 0 1 6.617959,-7.126089 4.6587498,7.6450949 64.803946 0 1 7.731695,2.438276 z m -29.41786,5.325708 a 4.6587498,7.6450949 64.803946 0 1 -6.617959,7.126088 4.6587498,7.6450949 64.803946 0 1 -7.731698,-2.438276 4.6587498,7.6450949 64.803946 0 1 6.61796,-7.126087 4.6587498,7.6450949 64.803946 0 1 7.731697,2.438275 z" /><path
         style="opacity:1;fill:none;fill-opacity:1;stroke:#a53d19;stroke-width:3.64966;stroke-linecap:round;stroke-linejoin:round;stroke-opacity:1"
         d="M 33.205872,-5.6972267 76.312648,23.230522"
         id="path9-8"
         sodipodi:nodetypes="cc" /></g></g><g
     inkscape:label="Ebene 1"
     inkscape:groupmode="layer"
     id="layer1"><path
       style="fill:#a53d19;fill-opacity:1;stroke:none;stroke-width:0.22818"
       d="M 12.00754,5.1146256 43.413925,1.6867762e-4"
       id="path7" /><path
       id="rect11-3"
       style="fill:url(#linearGradient17);stroke-width:0.22854;stroke-dasharray:none"
       d="m 12.007242,9.237365 h 2.227082 V 39.089788 H 12.007242 Z M 41.186928,4.1223518 h 2.227078 V 33.974775 H 41.186928 Z M 12.007244,5.1150136 43.414006,0 V 8.2447028 L 12.007244,13.359717 Z M 43.371933,33.814819 a 4.6143676,7.5722629 64.803946 0 1 -6.55491,7.058202 4.6143676,7.5722629 64.803946 0 1 -7.658041,-2.415048 4.6143676,7.5722629 64.803946 0 1 6.554913,-7.058201 4.6143676,7.5722629 64.803946 0 1 7.658038,2.415047 z M 14.234326,39.089791 A 4.6143676,7.5722629 64.803946 0 1 7.6794134,46.147992 4.6143676,7.5722629 64.803946 0 1 0.02137228,43.732944 4.6143676,7.5722629 64.803946 0 1 6.5762851,36.674745 4.6143676,7.5722629 64.803946 0 1 14.234326,39.089791 Z" /><path
       style="fill:none;stroke:url(#linearGradient14);stroke-width:3.61489;stroke-linecap:round;stroke-linejoin:round"
       d="M 2.3197595,12.935307 45.015874,41.587472"
       id="path9"
       sodipodi:nodetypes="cc" /></g></svg>
