<?xml version="1.0" encoding="UTF-8" standalone="no"?>
<svg
   xmlns:dc="http://purl.org/dc/elements/1.1/"
   xmlns:cc="http://creativecommons.org/ns#"
   xmlns:rdf="http://www.w3.org/1999/02/22-rdf-syntax-ns#"
   xmlns:svg="http://www.w3.org/2000/svg"
   xmlns="http://www.w3.org/2000/svg"
   xmlns:sodipodi="http://sodipodi.sourceforge.net/DTD/sodipodi-0.dtd"
   xmlns:inkscape="http://www.inkscape.org/namespaces/inkscape"
   viewBox="0 0 101 96.926007"
   width="101"
   height="96.926003"
   version="1.1"
   id="svg71"
   sodipodi:docname="settings-icon.svg"
   inkscape:version="1.0.2-2 (e86c870879, 2021-01-15)">
  <metadata
     id="metadata75">
    <rdf:RDF>
      <cc:Work
         rdf:about="">
        <dc:format>image/svg+xml</dc:format>
        <dc:type
           rdf:resource="http://purl.org/dc/dcmitype/StillImage" />
        <dc:title></dc:title>
      </cc:Work>
    </rdf:RDF>
  </metadata>
  <sodipodi:namedview
     pagecolor="#ffffff"
     bordercolor="#666666"
     borderopacity="1"
     objecttolerance="10"
     gridtolerance="10"
     guidetolerance="10"
     inkscape:pageopacity="0"
     inkscape:pageshadow="2"
     inkscape:window-width="1718"
     inkscape:window-height="1360"
     id="namedview73"
     showgrid="false"
     inkscape:zoom="5.079741"
     inkscape:cx="56.502709"
     inkscape:cy="84.520689"
     inkscape:window-x="3633"
     inkscape:window-y="0"
     inkscape:window-maximized="0"
     inkscape:current-layer="layer1" />
  <defs
     id="defs15">
    <marker
       id="DistanceX"
       orient="auto"
       refX="0"
       refY="0"
       style="overflow:visible">
      <path
         d="M 3,-3 -3,3 M 0,-5 V 5"
         style="stroke:#000000;stroke-width:0.5"
         id="path2" />
    </marker>
    <pattern
       id="Hatch"
       patternUnits="userSpaceOnUse"
       width="8"
       height="8"
       x="0"
       y="0">
      <path
         d="M8 4 l-4,4"
         stroke="#000000"
         stroke-width="0.25"
         linecap="square"
         id="path5" />
      <path
         d="M6 2 l-4,4"
         stroke="#000000"
         stroke-width="0.25"
         linecap="square"
         id="path7" />
      <path
         d="M4 0 l-4,4"
         stroke="#000000"
         stroke-width="0.25"
         linecap="square"
         id="path9" />
    </pattern>
    <symbol
       id="*Model_Space" />
    <symbol
       id="*Paper_Space" />
    <symbol
       id="*Paper_Space0" />
  </defs>
  <g
     inkscape:groupmode="layer"
     id="layer1"
     inkscape:label="1">
    <path
       id="path65-2"
       style="fill:none;stroke:#a53d19;stroke-width:6.21701;stroke-linecap:round;stroke-miterlimit:4;stroke-dasharray:none;stroke-opacity:1"
       d="m 84.240711,58.033159 c 1.5064,-5.61424 1.5064,-11.52635 0,-17.14059 M 60.847972,81.409755 c 5.615299,-1.50255 10.735359,-4.4586 14.84426,-8.5703 m -29.047298,21.6238 c 3.754945,0.47182 7.554183,0.47182 11.309128,0 m 30.489869,-17.6032 c 2.286091,-3.01596 4.185711,-6.3062 5.654561,-9.794 m 0,-35.206486 c -1.468861,-3.48776 -3.368481,-6.77797 -5.654561,-9.7939 m -12.751699,4.0206 c -4.108901,-4.11169 -9.228961,-7.06775 -14.84426,-8.5703 M 57.954062,4.4623693 c -3.754945,-0.47182 -7.554183,-0.47182 -11.309128,0 M 60.847972,17.515969 57.954062,4.4623693 m -11.309128,0 -2.89391,13.0535997 m 0,63.893786 2.89391,13.0535 m 11.309128,0 2.89391,-13.0535 m 14.84426,-8.5703 12.751699,4.0206 m 5.654561,-9.794 -9.857781,-9.032896 m 0,-17.14059 9.857781,-9.033 m -5.654561,-9.7939 -12.751699,4.0206 M 28.906761,72.839455 c 4.1089,4.1117 9.228966,7.06775 14.844263,8.5703 M 20.358288,40.892569 c -1.506398,5.61424 -1.506398,11.52635 0,17.14059 m 23.392736,-40.51719 c -5.615297,1.50255 -10.735363,4.45861 -14.844263,8.5703 m -12.751692,-4.0206 c -2.286084,3.01593 -4.185702,6.30614 -5.654564,9.7939 m 0,35.206486 c 1.468854,3.4878 3.368472,6.77804 5.654564,9.794 m 12.751692,-50.773786 -12.751692,-4.0206 m -5.654564,9.7939 9.857783,9.033 m 0,17.14059 -9.857783,9.032896 m 5.654564,9.794 12.751692,-4.0206"
       sodipodi:nodetypes="cccccccccccccccccccccccccccccccccccccccccccccccc" />
    <circle
       style="fill:none;fill-opacity:1;stroke:#a53d19;stroke-width:6.89935;stroke-linecap:round;stroke-linejoin:round;stroke-miterlimit:4;stroke-dasharray:none;stroke-opacity:1;paint-order:markers fill stroke"
       id="path1136-0"
       cx="52.767078"
       cy="49.802116"
       r="12.550323" />
  </g>
  <g
     inkscape:groupmode="layer"
     inkscape:label="0"
     id="g67">
    <path
       id="path65"
       style="fill:none;stroke:#ff9600;stroke-width:6.21701;stroke-linecap:round;stroke-miterlimit:4;stroke-dasharray:none;stroke-opacity:1"
       d="m 82.441211,57.033168 c 1.506398,-5.614242 1.506398,-11.526356 0,-17.140598 M 59.048474,80.409764 c 5.615297,-1.502547 10.735363,-4.458605 14.844263,-8.570298 M 44.845436,93.463263 c 3.754945,0.471826 7.554183,0.471826 11.309128,0 M 86.64443,75.860065 c 2.286091,-3.015966 4.18571,-6.306205 5.654563,-9.793999 m 0,-35.206494 C 90.830132,27.371813 88.930514,24.081608 86.64443,21.065673 m -12.751693,4.020599 c -4.1089,-4.111693 -9.228966,-7.067751 -14.844263,-8.570298 M 56.154564,3.4623753 c -3.754945,-0.4718261 -7.554183,-0.4718261 -11.309128,0 M 59.048474,16.515974 56.154564,3.4623753 m -11.309128,0 -2.89391,13.0535987 m 0,63.89379 2.89391,13.053499 m 11.309128,0 2.89391,-13.053499 m 14.844263,-8.570298 12.751693,4.020599 m 5.654563,-9.793999 -9.857782,-9.032898 m 0,-17.140598 9.857782,-9.032998 M 86.64443,21.065673 73.892737,25.086272 M 27.107263,71.839466 c 4.1089,4.111693 9.228966,7.067751 14.844263,8.570298 M 18.558789,39.89257 c -1.506398,5.614242 -1.506398,11.526356 0,17.140598 M 41.951526,16.515974 c -5.615297,1.502547 -10.735363,4.458605 -14.844263,8.570298 M 14.35557,21.065673 c -2.286084,3.015935 -4.185702,6.30614 -5.6545635,9.793899 m 0,35.206494 C 10.16986,69.55386 12.069479,72.844099 14.35557,75.860065 M 27.107263,25.086272 14.35557,21.065673 m -5.6545635,9.793899 9.8577825,9.032998 m 0,17.140598 -9.8577825,9.032898 m 5.6545635,9.793999 12.751693,-4.020599"
       sodipodi:nodetypes="cccccccccccccccccccccccccccccccccccccccccccccccc" />
    <circle
       style="fill:none;fill-opacity:1;stroke:#ff9600;stroke-width:6.89935;stroke-linecap:round;stroke-linejoin:round;stroke-miterlimit:4;stroke-dasharray:none;stroke-opacity:1;paint-order:markers fill stroke"
       id="path1136"
       cx="50.967606"
       cy="48.802143"
       r="12.550323" />
    <path
       style="fill:#ffc226;fill-opacity:1;stroke:#ffc226;stroke-width:1.18116;stroke-linecap:round;stroke-linejoin:round;stroke-miterlimit:4;stroke-dasharray:none;stroke-opacity:1;paint-order:markers fill stroke"
       d="m 47.696047,90.46284 c -0.13378,-0.08497 -0.811486,-2.686554 -1.506013,-5.781296 -0.69453,-3.094743 -1.417661,-5.863183 -1.60696,-6.15209 -0.428739,-0.654336 -1.012629,-0.959336 -3.081803,-1.609802 -3.812598,-1.198532 -8.019541,-3.635081 -11.155069,-6.460719 -1.481688,-1.335252 -2.439203,-1.878817 -3.3167,-1.88284 -0.201988,-9.85e-4 -10.275754,3.124793 -11.141612,3.457054 -0.29247,0.112232 -1.617598,-1.890022 -2.761677,-4.172859 l -0.506176,-1.009998 4.22505,-3.874304 c 2.323777,-2.130866 4.364794,-4.144538 4.535593,-4.474826 0.408429,-0.789816 0.377912,-1.825836 -0.120773,-4.100117 -0.79171,-3.610633 -0.733366,-9.125454 0.132249,-12.500637 0.403016,-1.571429 0.377733,-2.939007 -0.06708,-3.628217 -0.195623,-0.303108 -2.127422,-2.169026 -4.292886,-4.146483 -2.165465,-1.977457 -4.061931,-3.711876 -4.214368,-3.854265 -0.235808,-0.220264 -0.09509,-0.576284 0.943168,-2.38624 0.67118,-1.170042 1.377559,-2.33391 1.569732,-2.586372 l 0.349404,-0.459021 5.336889,1.689398 c 3.289911,1.041426 5.663382,1.689118 6.188123,1.688663 1.018892,-7.87e-4 1.541052,-0.308173 3.508852,-2.064965 3.01949,-2.695714 6.710779,-4.797658 10.728893,-6.109396 2.229742,-0.727914 3.035322,-1.252753 3.426547,-2.232417 0.170329,-0.426517 2.577696,-11.0216854 2.577696,-11.3448079 0,-0.054552 1.373102,-0.099185 3.051337,-0.099185 1.678235,0 3.051337,0.044633 3.051337,0.099185 0,0.3231225 2.407366,10.9182909 2.577696,11.3448079 0.391225,0.979664 1.196805,1.504503 3.426547,2.232417 4.018114,1.311738 7.709403,3.413682 10.728893,6.109396 1.96862,1.757524 2.489771,2.064085 3.510437,2.064965 0.524988,3.94e-4 2.905353,-0.64659 6.192239,-1.683208 l 5.339416,-1.683944 0.345291,0.453567 c 0.18991,0.249461 0.894692,1.411322 1.566184,2.581911 1.19592,2.084801 1.213202,2.135619 0.84474,2.483993 -0.206888,0.195608 -2.103609,1.927927 -4.214937,3.849598 -2.111328,1.92167 -3.999046,3.771544 -4.194928,4.110829 -0.432184,0.748578 -0.369175,2.406702 0.176798,4.652523 0.557196,2.291989 0.515304,8.635291 -0.07496,11.350398 -0.50775,2.335556 -0.545468,3.416339 -0.146174,4.188487 0.158687,0.306866 2.192141,2.306617 4.518789,4.44389 l 4.230267,3.88595 -0.505778,1.009211 c -0.99747,1.99032 -2.44794,4.237972 -2.6829,4.15743 -1.545622,-0.529828 -11.041553,-3.443232 -11.220173,-3.442411 -0.876785,0.004 -1.835265,0.547882 -3.316517,1.881849 -3.15109,2.837771 -6.879788,5.02495 -10.772993,6.31922 -2.322187,0.771996 -3.142865,1.203463 -3.548862,1.865796 -0.149743,0.24429 -0.834217,2.966864 -1.52105,6.050167 -0.686834,3.083303 -1.361601,5.6776 -1.499482,5.765107 -0.322416,0.204621 -5.290972,0.208702 -5.612296,0.0046 z m 7.527069,-26.117333 c 5.473224,-1.506528 9.851973,-5.993406 11.337805,-11.617778 0.576848,-2.18357 0.579356,-5.67283 0.0057,-7.874417 -1.091734,-4.189572 -3.969218,-7.946574 -7.737581,-10.102613 -4.095764,-2.34336 -9.738079,-2.644708 -14.138898,-0.755137 -6.535267,2.80603 -10.510603,9.59829 -9.695308,16.565401 0.815441,6.968358 5.707433,12.384596 12.649196,14.004736 1.469243,0.342907 6.012967,0.210901 7.579127,-0.220192 z"
       id="path1142" />
  </g>
  <desc
     id="desc69">settings.DXF - scale = 1.000000, origin = (0.000000, 0.000000), method = manual</desc>
</svg>
